<mxfile host="Electron" modified="2024-03-25T18:09:28.335Z" agent="Mozilla/5.0 (Windows NT 10.0; Win64; x64) AppleWebKit/537.36 (KHTML, like Gecko) draw.io/24.0.4 Chrome/120.0.6099.109 Electron/28.1.0 Safari/537.36" etag="QYsVHeHM8rjj4qOJL9Ev" version="24.0.4" type="device">
  <diagram id="ARDAFAVufBpDKOY6QctL" name="PÃ¡gina-2">
    <mxGraphModel dx="3217" dy="3731" grid="1" gridSize="10" guides="1" tooltips="1" connect="1" arrows="1" fold="1" page="1" pageScale="1" pageWidth="827" pageHeight="1169" math="0" shadow="0">
      <root>
        <mxCell id="0" />
        <mxCell id="1" parent="0" />
        <mxCell id="L0ndeyfKepNJO1UABLWo-1" value="&lt;p style=&quot;margin:0px;margin-top:4px;text-align:center;&quot;&gt;&lt;i&gt;&amp;lt;&amp;lt;Interface&amp;gt;&amp;gt;&lt;/i&gt;&lt;br&gt;&lt;b&gt;ASTNode&lt;/b&gt;&lt;/p&gt;&lt;hr size=&quot;1&quot;&gt;&lt;p style=&quot;margin:0px;margin-left:4px;&quot;&gt;+ getLine(): int&lt;br&gt;&lt;/p&gt;&lt;p style=&quot;margin:0px;margin-left:4px;&quot;&gt;+ getColumn(): int&lt;/p&gt;&lt;p style=&quot;margin:0px;margin-left:4px;&quot;&gt;+ TR accept(Visitor&amp;lt;TP, TR&amp;gt; v, TP o): TR&lt;/p&gt;" style="verticalAlign=top;align=left;overflow=fill;fontSize=12;fontFamily=Helvetica;html=1;whiteSpace=wrap;" vertex="1" parent="1">
          <mxGeometry x="-150" y="-910" width="250" height="100" as="geometry" />
        </mxCell>
        <mxCell id="sbDc95EPFJC3rL3Ms030-2" style="edgeStyle=orthogonalEdgeStyle;rounded=0;orthogonalLoop=1;jettySize=auto;html=1;dashed=1;endArrow=block;endFill=0;" edge="1" parent="1" source="sbDc95EPFJC3rL3Ms030-1" target="L0ndeyfKepNJO1UABLWo-1">
          <mxGeometry relative="1" as="geometry" />
        </mxCell>
        <mxCell id="e-Fvw0Ms2L-dQSS6X_4g-2" style="edgeStyle=orthogonalEdgeStyle;rounded=0;orthogonalLoop=1;jettySize=auto;html=1;entryX=0.5;entryY=0;entryDx=0;entryDy=0;endArrow=none;endFill=0;startArrow=diamondThin;startFill=0;" edge="1" parent="1" source="sbDc95EPFJC3rL3Ms030-1" target="e-Fvw0Ms2L-dQSS6X_4g-1">
          <mxGeometry relative="1" as="geometry" />
        </mxCell>
        <mxCell id="sbDc95EPFJC3rL3Ms030-1" value="&lt;p style=&quot;margin: 4px 0px 0px; text-align: center;&quot;&gt;&lt;b&gt;Program&lt;/b&gt;&lt;/p&gt;&lt;hr&gt;&lt;p style=&quot;margin:0px;margin-left:8px;&quot;&gt;&lt;br&gt;&lt;/p&gt;" style="verticalAlign=top;align=left;overflow=fill;fontSize=12;fontFamily=Helvetica;html=1;whiteSpace=wrap;" vertex="1" parent="1">
          <mxGeometry x="-115" y="-1030" width="180" height="40" as="geometry" />
        </mxCell>
        <mxCell id="Yr1UhzaYxIxZr2qXITPn-8" style="edgeStyle=orthogonalEdgeStyle;rounded=0;orthogonalLoop=1;jettySize=auto;html=1;entryX=0;entryY=0.75;entryDx=0;entryDy=0;endArrow=block;endFill=0;dashed=1;" edge="1" parent="1" source="e-Fvw0Ms2L-dQSS6X_4g-1" target="L0ndeyfKepNJO1UABLWo-1">
          <mxGeometry relative="1" as="geometry">
            <Array as="points">
              <mxPoint x="-260" y="-835" />
              <mxPoint x="-260" y="-835" />
            </Array>
          </mxGeometry>
        </mxCell>
        <mxCell id="FUjuVm3gWqKtoWpOUtUC-14" style="edgeStyle=orthogonalEdgeStyle;rounded=0;orthogonalLoop=1;jettySize=auto;html=1;endArrow=none;endFill=0;startArrow=diamond;startFill=0;" edge="1" parent="1" source="e-Fvw0Ms2L-dQSS6X_4g-1" target="EEIvymHHxTJM7bsqld81-1">
          <mxGeometry relative="1" as="geometry">
            <Array as="points">
              <mxPoint x="-580" y="-841" />
              <mxPoint x="-580" y="-641" />
              <mxPoint x="-445" y="-641" />
            </Array>
          </mxGeometry>
        </mxCell>
        <mxCell id="e-Fvw0Ms2L-dQSS6X_4g-1" value="&lt;p style=&quot;margin:0px;margin-top:4px;text-align:center;&quot;&gt;&lt;i&gt;&amp;lt;&amp;lt;Interface&amp;gt;&amp;gt;&lt;/i&gt;&lt;br&gt;&lt;b&gt;Definition&lt;/b&gt;&lt;/p&gt;&lt;hr size=&quot;1&quot;&gt;&lt;p style=&quot;margin:0px;margin-left:4px;&quot;&gt;+ getScope(): int&lt;/p&gt;&lt;p style=&quot;margin:0px;margin-left:4px;&quot;&gt;+ setScope(int): void&lt;/p&gt;&lt;p style=&quot;margin:0px;margin-left:4px;&quot;&gt;+ getType(): Type&lt;/p&gt;&lt;p style=&quot;margin:0px;margin-left:4px;&quot;&gt;+ setType(Type): void&lt;/p&gt;&lt;p style=&quot;margin:0px;margin-left:4px;&quot;&gt;+ setName(String): void&lt;/p&gt;&lt;p style=&quot;margin:0px;margin-left:4px;&quot;&gt;+ getName(): String&lt;/p&gt;" style="verticalAlign=top;align=left;overflow=fill;fontSize=12;fontFamily=Helvetica;html=1;whiteSpace=wrap;" vertex="1" parent="1">
          <mxGeometry x="-450" y="-910" width="165" height="137.5" as="geometry" />
        </mxCell>
        <mxCell id="e-Fvw0Ms2L-dQSS6X_4g-3" value="*" style="text;html=1;align=center;verticalAlign=middle;resizable=0;points=[];autosize=1;strokeColor=none;fillColor=none;" vertex="1" parent="1">
          <mxGeometry x="-395" y="-932" width="30" height="30" as="geometry" />
        </mxCell>
        <mxCell id="Yr1UhzaYxIxZr2qXITPn-7" style="edgeStyle=orthogonalEdgeStyle;rounded=0;orthogonalLoop=1;jettySize=auto;html=1;endArrow=none;endFill=0;dashed=1;" edge="1" parent="1" source="Yr1UhzaYxIxZr2qXITPn-1" target="e-Fvw0Ms2L-dQSS6X_4g-1">
          <mxGeometry relative="1" as="geometry">
            <Array as="points">
              <mxPoint x="-475" y="-750" />
              <mxPoint x="-367" y="-750" />
            </Array>
          </mxGeometry>
        </mxCell>
        <mxCell id="Yr1UhzaYxIxZr2qXITPn-1" value="&lt;p style=&quot;margin: 4px 0px 0px; text-align: center;&quot;&gt;&lt;b&gt;FunctionDefinition&lt;/b&gt;&lt;/p&gt;&lt;hr&gt;&lt;span style=&quot;background-color: initial;&quot;&gt;&lt;br&gt;&lt;/span&gt;" style="verticalAlign=top;align=left;overflow=fill;fontSize=12;fontFamily=Helvetica;html=1;whiteSpace=wrap;" vertex="1" parent="1">
          <mxGeometry x="-570" y="-720" width="190" height="40" as="geometry" />
        </mxCell>
        <mxCell id="Yr1UhzaYxIxZr2qXITPn-6" style="edgeStyle=orthogonalEdgeStyle;rounded=0;orthogonalLoop=1;jettySize=auto;html=1;endArrow=block;endFill=0;dashed=1;" edge="1" parent="1" source="Yr1UhzaYxIxZr2qXITPn-2" target="e-Fvw0Ms2L-dQSS6X_4g-1">
          <mxGeometry relative="1" as="geometry">
            <Array as="points">
              <mxPoint x="-195" y="-750" />
              <mxPoint x="-367" y="-750" />
            </Array>
          </mxGeometry>
        </mxCell>
        <mxCell id="rsHb8JiWc4PLuXVfpDFB-3" style="edgeStyle=orthogonalEdgeStyle;rounded=0;orthogonalLoop=1;jettySize=auto;html=1;entryX=0;entryY=0.5;entryDx=0;entryDy=0;endArrow=block;endFill=0;dashed=1;" edge="1" parent="1" source="Yr1UhzaYxIxZr2qXITPn-2" target="rsHb8JiWc4PLuXVfpDFB-1">
          <mxGeometry relative="1" as="geometry">
            <Array as="points">
              <mxPoint x="-93" y="-695" />
              <mxPoint x="-93" y="-697" />
            </Array>
          </mxGeometry>
        </mxCell>
        <mxCell id="Yr1UhzaYxIxZr2qXITPn-2" value="&lt;p style=&quot;margin: 4px 0px 0px; text-align: center;&quot;&gt;&lt;b&gt;VarDefinition&lt;/b&gt;&lt;/p&gt;&lt;hr&gt;&lt;p style=&quot;margin:0px;margin-left:8px;&quot;&gt;&lt;span style=&quot;background-color: initial;&quot;&gt;- int offset&lt;/span&gt;&lt;/p&gt;" style="verticalAlign=top;align=left;overflow=fill;fontSize=12;fontFamily=Helvetica;html=1;whiteSpace=wrap;" vertex="1" parent="1">
          <mxGeometry x="-275" y="-720" width="160" height="50" as="geometry" />
        </mxCell>
        <mxCell id="rsHb8JiWc4PLuXVfpDFB-2" style="edgeStyle=orthogonalEdgeStyle;rounded=0;orthogonalLoop=1;jettySize=auto;html=1;endArrow=block;endFill=0;dashed=1;" edge="1" parent="1" source="rsHb8JiWc4PLuXVfpDFB-1" target="L0ndeyfKepNJO1UABLWo-1">
          <mxGeometry relative="1" as="geometry" />
        </mxCell>
        <mxCell id="rsHb8JiWc4PLuXVfpDFB-1" value="&lt;p style=&quot;margin:0px;margin-top:4px;text-align:center;&quot;&gt;&lt;i&gt;&amp;lt;&amp;lt;Interface&amp;gt;&amp;gt;&lt;/i&gt;&lt;br&gt;&lt;b&gt;Statement&lt;/b&gt;&lt;/p&gt;&lt;hr size=&quot;1&quot;&gt;&lt;p style=&quot;margin:0px;margin-left:4px;&quot;&gt;&lt;br&gt;&lt;/p&gt;" style="verticalAlign=top;align=left;overflow=fill;fontSize=12;fontFamily=Helvetica;html=1;whiteSpace=wrap;" vertex="1" parent="1">
          <mxGeometry x="-70" y="-725" width="190" height="55" as="geometry" />
        </mxCell>
        <mxCell id="9bNFW8M83JbI61gbNGUM-3" style="edgeStyle=orthogonalEdgeStyle;rounded=0;orthogonalLoop=1;jettySize=auto;html=1;endArrow=block;endFill=0;dashed=1;" edge="1" parent="1" source="jhtO33wH89nG0xJF0WMk-1" target="rsHb8JiWc4PLuXVfpDFB-1">
          <mxGeometry relative="1" as="geometry">
            <Array as="points">
              <mxPoint x="-300" y="-640" />
              <mxPoint x="25" y="-640" />
            </Array>
          </mxGeometry>
        </mxCell>
        <mxCell id="jhtO33wH89nG0xJF0WMk-1" value="&lt;p style=&quot;margin: 4px 0px 0px; text-align: center;&quot;&gt;&lt;b&gt;Read&lt;/b&gt;&lt;/p&gt;&lt;hr&gt;&lt;p style=&quot;margin:0px;margin-left:8px;&quot;&gt;value: List&amp;lt;Expression&amp;gt;&lt;br&gt;&lt;/p&gt;" style="verticalAlign=top;align=left;overflow=fill;fontSize=12;fontFamily=Helvetica;html=1;whiteSpace=wrap;" vertex="1" parent="1">
          <mxGeometry x="-380" y="-620" width="160" height="49" as="geometry" />
        </mxCell>
        <mxCell id="9bNFW8M83JbI61gbNGUM-4" style="edgeStyle=orthogonalEdgeStyle;rounded=0;orthogonalLoop=1;jettySize=auto;html=1;endArrow=block;endFill=0;dashed=1;" edge="1" parent="1" source="jhtO33wH89nG0xJF0WMk-2" target="rsHb8JiWc4PLuXVfpDFB-1">
          <mxGeometry relative="1" as="geometry">
            <Array as="points">
              <mxPoint x="-130" y="-640" />
              <mxPoint x="25" y="-640" />
            </Array>
          </mxGeometry>
        </mxCell>
        <mxCell id="jhtO33wH89nG0xJF0WMk-2" value="&lt;p style=&quot;margin: 4px 0px 0px; text-align: center;&quot;&gt;&lt;b&gt;Return&lt;/b&gt;&lt;/p&gt;&lt;hr&gt;&lt;p style=&quot;margin:0px;margin-left:8px;&quot;&gt;value: Expression&lt;br&gt;&lt;/p&gt;" style="verticalAlign=top;align=left;overflow=fill;fontSize=12;fontFamily=Helvetica;html=1;whiteSpace=wrap;" vertex="1" parent="1">
          <mxGeometry x="-210" y="-620" width="160" height="50" as="geometry" />
        </mxCell>
        <mxCell id="9bNFW8M83JbI61gbNGUM-6" style="edgeStyle=orthogonalEdgeStyle;rounded=0;orthogonalLoop=1;jettySize=auto;html=1;endArrow=block;endFill=0;dashed=1;" edge="1" parent="1" source="jhtO33wH89nG0xJF0WMk-3" target="rsHb8JiWc4PLuXVfpDFB-1">
          <mxGeometry relative="1" as="geometry">
            <Array as="points">
              <mxPoint x="210" y="-640" />
              <mxPoint x="25" y="-640" />
            </Array>
          </mxGeometry>
        </mxCell>
        <mxCell id="jhtO33wH89nG0xJF0WMk-3" value="&lt;p style=&quot;margin: 4px 0px 0px; text-align: center;&quot;&gt;&lt;b&gt;Write&lt;/b&gt;&lt;/p&gt;&lt;hr&gt;&lt;p style=&quot;margin:0px;margin-left:8px;&quot;&gt;value: List&amp;lt;Expression&amp;gt;&lt;br&gt;&lt;/p&gt;" style="verticalAlign=top;align=left;overflow=fill;fontSize=12;fontFamily=Helvetica;html=1;whiteSpace=wrap;" vertex="1" parent="1">
          <mxGeometry x="130" y="-620" width="160" height="50" as="geometry" />
        </mxCell>
        <mxCell id="9bNFW8M83JbI61gbNGUM-8" style="edgeStyle=orthogonalEdgeStyle;rounded=0;orthogonalLoop=1;jettySize=auto;html=1;endArrow=block;endFill=0;dashed=1;" edge="1" parent="1" source="jhtO33wH89nG0xJF0WMk-4" target="rsHb8JiWc4PLuXVfpDFB-1">
          <mxGeometry relative="1" as="geometry">
            <Array as="points">
              <mxPoint x="605" y="-640" />
              <mxPoint x="25" y="-640" />
            </Array>
          </mxGeometry>
        </mxCell>
        <mxCell id="FUjuVm3gWqKtoWpOUtUC-23" style="edgeStyle=orthogonalEdgeStyle;rounded=0;orthogonalLoop=1;jettySize=auto;html=1;entryX=1;entryY=0.5;entryDx=0;entryDy=0;endArrow=diamondThin;endFill=0;" edge="1" parent="1" source="jhtO33wH89nG0xJF0WMk-4" target="rsHb8JiWc4PLuXVfpDFB-1">
          <mxGeometry relative="1" as="geometry">
            <Array as="points">
              <mxPoint x="630" y="-697" />
              <mxPoint x="310" y="-697" />
            </Array>
          </mxGeometry>
        </mxCell>
        <mxCell id="jhtO33wH89nG0xJF0WMk-4" value="&lt;p style=&quot;margin: 4px 0px 0px; text-align: center;&quot;&gt;&lt;b&gt;IfElse&lt;/b&gt;&lt;/p&gt;&lt;hr&gt;&lt;p style=&quot;border-color: var(--border-color); margin: 0px 0px 0px 8px;&quot;&gt;condition: Expression&amp;nbsp;&lt;/p&gt;&lt;p style=&quot;border-color: var(--border-color); margin: 0px 0px 0px 8px;&quot;&gt;trueStatements: List&amp;lt;Statement&amp;gt;&lt;br style=&quot;border-color: var(--border-color);&quot;&gt;falseStatements: List&amp;lt;Statement&amp;gt;&lt;/p&gt;" style="verticalAlign=top;align=left;overflow=fill;fontSize=12;fontFamily=Helvetica;html=1;whiteSpace=wrap;" vertex="1" parent="1">
          <mxGeometry x="500" y="-619" width="210" height="79" as="geometry" />
        </mxCell>
        <mxCell id="9bNFW8M83JbI61gbNGUM-5" style="edgeStyle=orthogonalEdgeStyle;rounded=0;orthogonalLoop=1;jettySize=auto;html=1;endArrow=block;endFill=0;dashed=1;" edge="1" parent="1" source="jhtO33wH89nG0xJF0WMk-6" target="rsHb8JiWc4PLuXVfpDFB-1">
          <mxGeometry relative="1" as="geometry">
            <Array as="points">
              <mxPoint x="40" y="-640" />
              <mxPoint x="25" y="-640" />
            </Array>
          </mxGeometry>
        </mxCell>
        <mxCell id="jhtO33wH89nG0xJF0WMk-6" value="&lt;p style=&quot;margin: 4px 0px 0px; text-align: center;&quot;&gt;&lt;b style=&quot;&quot;&gt;Assignment&lt;/b&gt;&lt;/p&gt;&lt;hr&gt;&lt;p style=&quot;margin:0px;margin-left:8px;&quot;&gt;left, rigth: Expression&lt;br&gt;&lt;/p&gt;" style="verticalAlign=top;align=left;overflow=fill;fontSize=12;fontFamily=Helvetica;html=1;whiteSpace=wrap;" vertex="1" parent="1">
          <mxGeometry x="-40" y="-620" width="160" height="50" as="geometry" />
        </mxCell>
        <mxCell id="9bNFW8M83JbI61gbNGUM-7" style="edgeStyle=orthogonalEdgeStyle;rounded=0;orthogonalLoop=1;jettySize=auto;html=1;endArrow=block;endFill=0;dashed=1;" edge="1" parent="1" source="9bNFW8M83JbI61gbNGUM-1" target="rsHb8JiWc4PLuXVfpDFB-1">
          <mxGeometry relative="1" as="geometry">
            <Array as="points">
              <mxPoint x="395" y="-640" />
              <mxPoint x="25" y="-640" />
            </Array>
          </mxGeometry>
        </mxCell>
        <mxCell id="FUjuVm3gWqKtoWpOUtUC-21" style="edgeStyle=orthogonalEdgeStyle;rounded=0;orthogonalLoop=1;jettySize=auto;html=1;entryX=1;entryY=0.5;entryDx=0;entryDy=0;endArrow=diamondThin;endFill=0;" edge="1" parent="1" source="9bNFW8M83JbI61gbNGUM-1" target="rsHb8JiWc4PLuXVfpDFB-1">
          <mxGeometry relative="1" as="geometry">
            <Array as="points">
              <mxPoint x="450" y="-697" />
              <mxPoint x="210" y="-697" />
            </Array>
          </mxGeometry>
        </mxCell>
        <mxCell id="9bNFW8M83JbI61gbNGUM-1" value="&lt;p style=&quot;margin: 4px 0px 0px; text-align: center;&quot;&gt;&lt;b&gt;While&lt;/b&gt;&lt;/p&gt;&lt;hr&gt;&lt;p style=&quot;margin:0px;margin-left:8px;&quot;&gt;condition: Expression&lt;br&gt;statements: List&amp;lt;Statement&amp;gt;&lt;/p&gt;" style="verticalAlign=top;align=left;overflow=fill;fontSize=12;fontFamily=Helvetica;html=1;whiteSpace=wrap;" vertex="1" parent="1">
          <mxGeometry x="300" y="-620" width="190" height="80" as="geometry" />
        </mxCell>
        <mxCell id="EEIvymHHxTJM7bsqld81-1" value="&lt;p style=&quot;margin:0px;margin-top:4px;text-align:center;&quot;&gt;&lt;i&gt;&amp;lt;&amp;lt;Interface&amp;gt;&amp;gt;&lt;/i&gt;&lt;br&gt;&lt;b&gt;Type&lt;/b&gt;&lt;/p&gt;&lt;hr size=&quot;1&quot;&gt;&lt;p style=&quot;margin:0px;margin-left:4px;&quot;&gt;&lt;br&gt;&lt;/p&gt;" style="verticalAlign=top;align=left;overflow=fill;fontSize=12;fontFamily=Helvetica;html=1;whiteSpace=wrap;" vertex="1" parent="1">
          <mxGeometry x="-540" y="-510" width="190" height="70" as="geometry" />
        </mxCell>
        <mxCell id="FUjuVm3gWqKtoWpOUtUC-10" style="edgeStyle=orthogonalEdgeStyle;rounded=0;orthogonalLoop=1;jettySize=auto;html=1;endArrow=block;endFill=0;dashed=1;" edge="1" parent="1" source="EEIvymHHxTJM7bsqld81-2" target="EEIvymHHxTJM7bsqld81-1">
          <mxGeometry relative="1" as="geometry">
            <Array as="points">
              <mxPoint x="-760" y="-300" />
              <mxPoint x="-520" y="-300" />
              <mxPoint x="-520" y="-410" />
              <mxPoint x="-445" y="-410" />
            </Array>
          </mxGeometry>
        </mxCell>
        <mxCell id="EEIvymHHxTJM7bsqld81-2" value="&lt;p style=&quot;margin: 4px 0px 0px; text-align: center;&quot;&gt;&lt;b&gt;IntType&lt;/b&gt;&lt;/p&gt;&lt;hr&gt;&lt;p style=&quot;margin:0px;margin-left:8px;&quot;&gt;&lt;br&gt;&lt;/p&gt;" style="verticalAlign=top;align=left;overflow=fill;fontSize=12;fontFamily=Helvetica;html=1;whiteSpace=wrap;" vertex="1" parent="1">
          <mxGeometry x="-820" y="-280" width="120" height="40" as="geometry" />
        </mxCell>
        <mxCell id="FUjuVm3gWqKtoWpOUtUC-11" style="edgeStyle=orthogonalEdgeStyle;rounded=0;orthogonalLoop=1;jettySize=auto;html=1;entryX=0.5;entryY=1;entryDx=0;entryDy=0;endArrow=block;endFill=0;dashed=1;" edge="1" parent="1" source="EEIvymHHxTJM7bsqld81-3" target="EEIvymHHxTJM7bsqld81-1">
          <mxGeometry relative="1" as="geometry">
            <Array as="points">
              <mxPoint x="-340" y="-410" />
              <mxPoint x="-445" y="-410" />
            </Array>
          </mxGeometry>
        </mxCell>
        <mxCell id="EEIvymHHxTJM7bsqld81-3" value="&lt;p style=&quot;margin: 4px 0px 0px; text-align: center;&quot;&gt;&lt;b&gt;FloatType&lt;/b&gt;&lt;/p&gt;&lt;hr&gt;&lt;p style=&quot;margin:0px;margin-left:8px;&quot;&gt;&lt;br&gt;&lt;/p&gt;" style="verticalAlign=top;align=left;overflow=fill;fontSize=12;fontFamily=Helvetica;html=1;whiteSpace=wrap;" vertex="1" parent="1">
          <mxGeometry x="-380" y="-280" width="140" height="40" as="geometry" />
        </mxCell>
        <mxCell id="FUjuVm3gWqKtoWpOUtUC-12" style="edgeStyle=orthogonalEdgeStyle;rounded=0;orthogonalLoop=1;jettySize=auto;html=1;endArrow=block;endFill=0;dashed=1;" edge="1" parent="1" source="EEIvymHHxTJM7bsqld81-4" target="EEIvymHHxTJM7bsqld81-1">
          <mxGeometry relative="1" as="geometry">
            <Array as="points">
              <mxPoint x="-150" y="-410" />
              <mxPoint x="-445" y="-410" />
            </Array>
          </mxGeometry>
        </mxCell>
        <mxCell id="EEIvymHHxTJM7bsqld81-4" value="&lt;p style=&quot;margin: 4px 0px 0px; text-align: center;&quot;&gt;&lt;b&gt;CharType&lt;/b&gt;&lt;/p&gt;&lt;hr&gt;&lt;p style=&quot;margin:0px;margin-left:8px;&quot;&gt;&lt;br&gt;&lt;/p&gt;" style="verticalAlign=top;align=left;overflow=fill;fontSize=12;fontFamily=Helvetica;html=1;whiteSpace=wrap;" vertex="1" parent="1">
          <mxGeometry x="-220" y="-280" width="140" height="40" as="geometry" />
        </mxCell>
        <mxCell id="FUjuVm3gWqKtoWpOUtUC-7" style="edgeStyle=orthogonalEdgeStyle;rounded=0;orthogonalLoop=1;jettySize=auto;html=1;endArrow=block;endFill=0;dashed=1;" edge="1" parent="1" source="EEIvymHHxTJM7bsqld81-5" target="EEIvymHHxTJM7bsqld81-1">
          <mxGeometry relative="1" as="geometry">
            <Array as="points">
              <mxPoint x="-435" y="-410" />
              <mxPoint x="-445" y="-410" />
            </Array>
          </mxGeometry>
        </mxCell>
        <mxCell id="FUjuVm3gWqKtoWpOUtUC-20" style="edgeStyle=orthogonalEdgeStyle;rounded=0;orthogonalLoop=1;jettySize=auto;html=1;endArrow=diamondThin;endFill=0;" edge="1" parent="1" source="EEIvymHHxTJM7bsqld81-5" target="EEIvymHHxTJM7bsqld81-1">
          <mxGeometry relative="1" as="geometry">
            <mxPoint x="-550" y="-470" as="targetPoint" />
            <Array as="points">
              <mxPoint x="-480" y="-420" />
              <mxPoint x="-620" y="-420" />
              <mxPoint x="-620" y="-475" />
            </Array>
          </mxGeometry>
        </mxCell>
        <mxCell id="EEIvymHHxTJM7bsqld81-5" value="&lt;p style=&quot;margin: 4px 0px 0px; text-align: center;&quot;&gt;&lt;b&gt;ArrayType&lt;/b&gt;&lt;/p&gt;&lt;hr&gt;&lt;p style=&quot;margin:0px;margin-left:8px;&quot;&gt;size: int&lt;/p&gt;&lt;p style=&quot;margin:0px;margin-left:8px;&quot;&gt;&lt;br&gt;&lt;/p&gt;" style="verticalAlign=top;align=left;overflow=fill;fontSize=12;fontFamily=Helvetica;html=1;whiteSpace=wrap;" vertex="1" parent="1">
          <mxGeometry x="-505" y="-382.5" width="140" height="52.5" as="geometry" />
        </mxCell>
        <mxCell id="FUjuVm3gWqKtoWpOUtUC-6" style="edgeStyle=orthogonalEdgeStyle;rounded=0;orthogonalLoop=1;jettySize=auto;html=1;dashed=1;endArrow=block;endFill=0;" edge="1" parent="1" source="EEIvymHHxTJM7bsqld81-6" target="EEIvymHHxTJM7bsqld81-1">
          <mxGeometry relative="1" as="geometry">
            <Array as="points">
              <mxPoint x="-240" y="-410" />
              <mxPoint x="-445" y="-410" />
            </Array>
          </mxGeometry>
        </mxCell>
        <mxCell id="EEIvymHHxTJM7bsqld81-6" value="&lt;p style=&quot;margin: 4px 0px 0px; text-align: center;&quot;&gt;&lt;b&gt;StructType&lt;/b&gt;&lt;/p&gt;&lt;hr&gt;&lt;p style=&quot;margin:0px;margin-left:8px;&quot;&gt;fields: List&amp;lt;StructField&amp;gt;&lt;/p&gt;" style="verticalAlign=top;align=left;overflow=fill;fontSize=12;fontFamily=Helvetica;html=1;whiteSpace=wrap;" vertex="1" parent="1">
          <mxGeometry x="-320" y="-382.5" width="160" height="65" as="geometry" />
        </mxCell>
        <mxCell id="FUjuVm3gWqKtoWpOUtUC-9" style="edgeStyle=orthogonalEdgeStyle;rounded=0;orthogonalLoop=1;jettySize=auto;html=1;endArrow=block;endFill=0;dashed=1;" edge="1" parent="1" source="EEIvymHHxTJM7bsqld81-7" target="EEIvymHHxTJM7bsqld81-1">
          <mxGeometry relative="1" as="geometry">
            <Array as="points">
              <mxPoint x="-520" y="-410" />
              <mxPoint x="-445" y="-410" />
            </Array>
          </mxGeometry>
        </mxCell>
        <mxCell id="EEIvymHHxTJM7bsqld81-7" value="&lt;p style=&quot;margin: 4px 0px 0px; text-align: center;&quot;&gt;&lt;b&gt;VoidType&lt;/b&gt;&lt;/p&gt;&lt;hr&gt;&lt;p style=&quot;margin:0px;margin-left:8px;&quot;&gt;&lt;br&gt;&lt;/p&gt;" style="verticalAlign=top;align=left;overflow=fill;fontSize=12;fontFamily=Helvetica;html=1;whiteSpace=wrap;" vertex="1" parent="1">
          <mxGeometry x="-540" y="-280" width="140" height="40" as="geometry" />
        </mxCell>
        <mxCell id="FUjuVm3gWqKtoWpOUtUC-3" style="edgeStyle=orthogonalEdgeStyle;rounded=0;orthogonalLoop=1;jettySize=auto;html=1;endArrow=block;endFill=0;dashed=1;" edge="1" parent="1" source="EEIvymHHxTJM7bsqld81-8" target="EEIvymHHxTJM7bsqld81-1">
          <mxGeometry relative="1" as="geometry">
            <Array as="points">
              <mxPoint x="-630" y="-410" />
              <mxPoint x="-445" y="-410" />
            </Array>
          </mxGeometry>
        </mxCell>
        <mxCell id="FUjuVm3gWqKtoWpOUtUC-17" style="edgeStyle=orthogonalEdgeStyle;rounded=0;orthogonalLoop=1;jettySize=auto;html=1;entryX=0;entryY=0.5;entryDx=0;entryDy=0;endArrow=diamondThin;endFill=0;" edge="1" parent="1" source="EEIvymHHxTJM7bsqld81-8" target="EEIvymHHxTJM7bsqld81-1">
          <mxGeometry relative="1" as="geometry">
            <Array as="points">
              <mxPoint x="-730" y="-356" />
              <mxPoint x="-730" y="-475" />
            </Array>
          </mxGeometry>
        </mxCell>
        <mxCell id="EEIvymHHxTJM7bsqld81-8" value="&lt;p style=&quot;margin: 4px 0px 0px; text-align: center;&quot;&gt;&lt;b&gt;FunctionType&lt;/b&gt;&lt;/p&gt;&lt;hr&gt;&lt;p style=&quot;margin:0px;margin-left:8px;&quot;&gt;&lt;span style=&quot;background-color: initial;&quot;&gt;- params: List&amp;lt;VarDefinition&amp;gt;&lt;/span&gt;&lt;br&gt;&lt;/p&gt;" style="verticalAlign=top;align=left;overflow=fill;fontSize=12;fontFamily=Helvetica;html=1;whiteSpace=wrap;" vertex="1" parent="1">
          <mxGeometry x="-720" y="-382.5" width="180" height="52.5" as="geometry" />
        </mxCell>
        <mxCell id="FUjuVm3gWqKtoWpOUtUC-13" style="edgeStyle=orthogonalEdgeStyle;rounded=0;orthogonalLoop=1;jettySize=auto;html=1;dashed=1;endArrow=none;endFill=0;" edge="1" parent="1" source="EEIvymHHxTJM7bsqld81-9">
          <mxGeometry relative="1" as="geometry">
            <mxPoint x="-620" y="-300" as="targetPoint" />
          </mxGeometry>
        </mxCell>
        <mxCell id="EEIvymHHxTJM7bsqld81-9" value="&lt;p style=&quot;margin: 4px 0px 0px; text-align: center;&quot;&gt;&lt;b&gt;ErrorType&lt;/b&gt;&lt;/p&gt;&lt;hr&gt;&lt;p style=&quot;margin:0px;margin-left:8px;&quot;&gt;- msg: String&lt;/p&gt;" style="verticalAlign=top;align=left;overflow=fill;fontSize=12;fontFamily=Helvetica;html=1;whiteSpace=wrap;" vertex="1" parent="1">
          <mxGeometry x="-680" y="-280" width="120" height="50" as="geometry" />
        </mxCell>
        <mxCell id="FUjuVm3gWqKtoWpOUtUC-15" value="1" style="text;html=1;align=center;verticalAlign=middle;resizable=0;points=[];autosize=1;strokeColor=none;fillColor=none;" vertex="1" parent="1">
          <mxGeometry x="-480" y="-870" width="30" height="30" as="geometry" />
        </mxCell>
        <mxCell id="FUjuVm3gWqKtoWpOUtUC-22" value="*" style="text;html=1;align=center;verticalAlign=middle;resizable=0;points=[];autosize=1;strokeColor=none;fillColor=none;" vertex="1" parent="1">
          <mxGeometry x="445" y="-642" width="30" height="30" as="geometry" />
        </mxCell>
        <mxCell id="FUjuVm3gWqKtoWpOUtUC-24" value="*" style="text;html=1;align=center;verticalAlign=middle;resizable=0;points=[];autosize=1;strokeColor=none;fillColor=none;" vertex="1" parent="1">
          <mxGeometry x="630" y="-642" width="30" height="30" as="geometry" />
        </mxCell>
        <mxCell id="FUjuVm3gWqKtoWpOUtUC-26" value="statements" style="text;html=1;align=center;verticalAlign=middle;resizable=0;points=[];autosize=1;strokeColor=none;fillColor=none;" vertex="1" parent="1">
          <mxGeometry x="374" y="-680" width="80" height="30" as="geometry" />
        </mxCell>
        <mxCell id="FUjuVm3gWqKtoWpOUtUC-27" value="trueStatements, falseStatements" style="text;html=1;align=center;verticalAlign=middle;resizable=0;points=[];autosize=1;strokeColor=none;fillColor=none;" vertex="1" parent="1">
          <mxGeometry x="440" y="-680" width="200" height="30" as="geometry" />
        </mxCell>
        <mxCell id="0KtcvcgZO-7BNj8EX-Y_-15" style="edgeStyle=orthogonalEdgeStyle;rounded=0;orthogonalLoop=1;jettySize=auto;html=1;endArrow=block;endFill=0;dashed=1;" edge="1" parent="1" source="0KtcvcgZO-7BNj8EX-Y_-1" target="L0ndeyfKepNJO1UABLWo-1">
          <mxGeometry relative="1" as="geometry" />
        </mxCell>
        <mxCell id="0KtcvcgZO-7BNj8EX-Y_-1" value="&lt;p style=&quot;margin:0px;margin-top:4px;text-align:center;&quot;&gt;&lt;i&gt;&amp;lt;&amp;lt;Interface&amp;gt;&amp;gt;&lt;/i&gt;&lt;br&gt;&lt;b&gt;Expression&lt;/b&gt;&lt;/p&gt;&lt;hr size=&quot;1&quot;&gt;&lt;p style=&quot;margin:0px;margin-left:4px;&quot;&gt;- lvalue: boolean&lt;/p&gt;" style="verticalAlign=top;align=left;overflow=fill;fontSize=12;fontFamily=Helvetica;html=1;whiteSpace=wrap;" vertex="1" parent="1">
          <mxGeometry x="260" y="-893.75" width="165" height="67.5" as="geometry" />
        </mxCell>
        <mxCell id="VL0LkrrhZiRL5HvyZSjI-4" style="edgeStyle=orthogonalEdgeStyle;rounded=0;orthogonalLoop=1;jettySize=auto;html=1;endArrow=none;endFill=0;dashed=1;" edge="1" parent="1" source="0KtcvcgZO-7BNj8EX-Y_-2">
          <mxGeometry relative="1" as="geometry">
            <mxPoint x="550" y="-860" as="targetPoint" />
          </mxGeometry>
        </mxCell>
        <mxCell id="pxX8koNSCoVORBukpUF8-3" style="edgeStyle=orthogonalEdgeStyle;rounded=0;orthogonalLoop=1;jettySize=auto;html=1;entryX=1;entryY=0.5;entryDx=0;entryDy=0;endArrow=diamondThin;endFill=0;" edge="1" parent="1" source="0KtcvcgZO-7BNj8EX-Y_-2" target="VL0LkrrhZiRL5HvyZSjI-1">
          <mxGeometry relative="1" as="geometry">
            <Array as="points">
              <mxPoint x="890" y="-1385" />
              <mxPoint x="890" y="-860" />
            </Array>
          </mxGeometry>
        </mxCell>
        <mxCell id="0KtcvcgZO-7BNj8EX-Y_-2" value="&lt;p style=&quot;margin:0px;margin-top:4px;text-align:center;&quot;&gt;&lt;b&gt;Variable&lt;/b&gt;&lt;/p&gt;&lt;hr size=&quot;1&quot;&gt;&lt;p style=&quot;margin:0px;margin-left:4px;&quot;&gt;+ name: string&lt;/p&gt;" style="verticalAlign=top;align=left;overflow=fill;fontSize=12;fontFamily=Helvetica;html=1;whiteSpace=wrap;" vertex="1" parent="1">
          <mxGeometry x="640" y="-1410" width="160" height="50" as="geometry" />
        </mxCell>
        <mxCell id="VL0LkrrhZiRL5HvyZSjI-27" style="edgeStyle=orthogonalEdgeStyle;rounded=0;orthogonalLoop=1;jettySize=auto;html=1;endArrow=none;endFill=0;startArrow=diamondThin;startFill=0;" edge="1" parent="1" source="0KtcvcgZO-7BNj8EX-Y_-3" target="0KtcvcgZO-7BNj8EX-Y_-1">
          <mxGeometry relative="1" as="geometry">
            <Array as="points">
              <mxPoint x="280" y="-1075" />
            </Array>
          </mxGeometry>
        </mxCell>
        <mxCell id="0KtcvcgZO-7BNj8EX-Y_-3" value="&lt;p style=&quot;margin:0px;margin-top:4px;text-align:center;&quot;&gt;&lt;b&gt;Arithmetic&lt;/b&gt;&lt;/p&gt;&lt;hr size=&quot;1&quot;&gt;&lt;p style=&quot;margin:0px;margin-left:4px;&quot;&gt;+ left, rigth: Expression&lt;/p&gt;&lt;p style=&quot;margin:0px;margin-left:4px;&quot;&gt;+ operator: String&lt;/p&gt;" style="verticalAlign=top;align=left;overflow=fill;fontSize=12;fontFamily=Helvetica;html=1;whiteSpace=wrap;" vertex="1" parent="1">
          <mxGeometry x="340" y="-1110" width="160" height="70" as="geometry" />
        </mxCell>
        <mxCell id="VL0LkrrhZiRL5HvyZSjI-28" style="edgeStyle=orthogonalEdgeStyle;rounded=0;orthogonalLoop=1;jettySize=auto;html=1;endArrow=none;endFill=0;startArrow=diamondThin;startFill=0;" edge="1" parent="1" source="0KtcvcgZO-7BNj8EX-Y_-4">
          <mxGeometry relative="1" as="geometry">
            <mxPoint x="280" y="-1070" as="targetPoint" />
          </mxGeometry>
        </mxCell>
        <mxCell id="0KtcvcgZO-7BNj8EX-Y_-4" value="&lt;p style=&quot;margin:0px;margin-top:4px;text-align:center;&quot;&gt;&lt;b&gt;Logic&lt;/b&gt;&lt;/p&gt;&lt;hr size=&quot;1&quot;&gt;&lt;p style=&quot;margin:0px;margin-left:4px;&quot;&gt;+ left, rigth: Expression&lt;/p&gt;&lt;p style=&quot;margin:0px;margin-left:4px;&quot;&gt;+ operator: String&lt;/p&gt;" style="verticalAlign=top;align=left;overflow=fill;fontSize=12;fontFamily=Helvetica;html=1;whiteSpace=wrap;" vertex="1" parent="1">
          <mxGeometry x="340" y="-1190" width="160" height="70" as="geometry" />
        </mxCell>
        <mxCell id="VL0LkrrhZiRL5HvyZSjI-29" style="edgeStyle=orthogonalEdgeStyle;rounded=0;orthogonalLoop=1;jettySize=auto;html=1;endArrow=none;endFill=0;startArrow=diamondThin;startFill=0;" edge="1" parent="1" source="0KtcvcgZO-7BNj8EX-Y_-5">
          <mxGeometry relative="1" as="geometry">
            <mxPoint x="280" y="-1150" as="targetPoint" />
          </mxGeometry>
        </mxCell>
        <mxCell id="0KtcvcgZO-7BNj8EX-Y_-5" value="&lt;p style=&quot;margin:0px;margin-top:4px;text-align:center;&quot;&gt;&lt;b&gt;Comparasion&lt;/b&gt;&lt;/p&gt;&lt;hr size=&quot;1&quot;&gt;&lt;p style=&quot;margin:0px;margin-left:4px;&quot;&gt;+ left, rigth: Expression&lt;/p&gt;&lt;p style=&quot;margin:0px;margin-left:4px;&quot;&gt;+ operator: String&lt;/p&gt;" style="verticalAlign=top;align=left;overflow=fill;fontSize=12;fontFamily=Helvetica;html=1;whiteSpace=wrap;" vertex="1" parent="1">
          <mxGeometry x="340" y="-1270" width="160" height="70" as="geometry" />
        </mxCell>
        <mxCell id="VL0LkrrhZiRL5HvyZSjI-30" style="edgeStyle=orthogonalEdgeStyle;rounded=0;orthogonalLoop=1;jettySize=auto;html=1;endArrow=none;endFill=0;startArrow=diamondThin;startFill=0;" edge="1" parent="1" source="0KtcvcgZO-7BNj8EX-Y_-6">
          <mxGeometry relative="1" as="geometry">
            <mxPoint x="280.0000000000002" y="-1230" as="targetPoint" />
          </mxGeometry>
        </mxCell>
        <mxCell id="0KtcvcgZO-7BNj8EX-Y_-6" value="&lt;p style=&quot;margin:0px;margin-top:4px;text-align:center;&quot;&gt;&lt;b&gt;ArrayAccess&lt;/b&gt;&lt;/p&gt;&lt;hr size=&quot;1&quot;&gt;&lt;p style=&quot;margin:0px;margin-left:4px;&quot;&gt;+ left, rigth: Expression&lt;br&gt;&lt;/p&gt;" style="verticalAlign=top;align=left;overflow=fill;fontSize=12;fontFamily=Helvetica;html=1;whiteSpace=wrap;" vertex="1" parent="1">
          <mxGeometry x="340" y="-1330" width="160" height="50" as="geometry" />
        </mxCell>
        <mxCell id="0KtcvcgZO-7BNj8EX-Y_-7" value="&lt;p style=&quot;margin:0px;margin-top:4px;text-align:center;&quot;&gt;&lt;b&gt;IntLiteral&lt;/b&gt;&lt;/p&gt;&lt;hr size=&quot;1&quot;&gt;&lt;p style=&quot;margin:0px;margin-left:4px;&quot;&gt;+ value: int&lt;/p&gt;" style="verticalAlign=top;align=left;overflow=fill;fontSize=12;fontFamily=Helvetica;html=1;whiteSpace=wrap;" vertex="1" parent="1">
          <mxGeometry x="640" y="-1220" width="160" height="50" as="geometry" />
        </mxCell>
        <mxCell id="VL0LkrrhZiRL5HvyZSjI-11" style="edgeStyle=orthogonalEdgeStyle;rounded=0;orthogonalLoop=1;jettySize=auto;html=1;endArrow=none;endFill=0;dashed=1;" edge="1" parent="1" source="0KtcvcgZO-7BNj8EX-Y_-8">
          <mxGeometry relative="1" as="geometry">
            <mxPoint x="550" y="-987" as="targetPoint" />
          </mxGeometry>
        </mxCell>
        <mxCell id="VL0LkrrhZiRL5HvyZSjI-21" style="edgeStyle=orthogonalEdgeStyle;rounded=0;orthogonalLoop=1;jettySize=auto;html=1;endArrow=none;endFill=0;startArrow=diamondThin;startFill=0;" edge="1" parent="1" source="0KtcvcgZO-7BNj8EX-Y_-8" target="0KtcvcgZO-7BNj8EX-Y_-1">
          <mxGeometry relative="1" as="geometry">
            <Array as="points">
              <mxPoint x="720" y="-930" />
              <mxPoint x="400" y="-930" />
            </Array>
          </mxGeometry>
        </mxCell>
        <mxCell id="0KtcvcgZO-7BNj8EX-Y_-8" value="&lt;p style=&quot;margin: 4px 0px 0px; text-align: center;&quot;&gt;&lt;b&gt;NotOperation&lt;/b&gt;&lt;/p&gt;&lt;hr&gt;&lt;p style=&quot;margin:0px;margin-left:8px;&quot;&gt;rigth: Expression&lt;br&gt;&lt;/p&gt;" style="verticalAlign=top;align=left;overflow=fill;fontSize=12;fontFamily=Helvetica;html=1;whiteSpace=wrap;" vertex="1" parent="1">
          <mxGeometry x="640" y="-1012" width="160" height="50" as="geometry" />
        </mxCell>
        <mxCell id="VL0LkrrhZiRL5HvyZSjI-25" style="edgeStyle=orthogonalEdgeStyle;rounded=0;orthogonalLoop=1;jettySize=auto;html=1;endArrow=none;endFill=0;startArrow=diamondThin;startFill=0;" edge="1" parent="1" source="0KtcvcgZO-7BNj8EX-Y_-9" target="0KtcvcgZO-7BNj8EX-Y_-1">
          <mxGeometry relative="1" as="geometry">
            <Array as="points">
              <mxPoint x="810" y="-1045" />
              <mxPoint x="810" y="-930" />
              <mxPoint x="400" y="-930" />
            </Array>
          </mxGeometry>
        </mxCell>
        <mxCell id="0KtcvcgZO-7BNj8EX-Y_-9" value="&lt;p style=&quot;margin:0px;margin-top:4px;text-align:center;&quot;&gt;&lt;b&gt;UnaryMinus&lt;/b&gt;&lt;/p&gt;&lt;hr size=&quot;1&quot;&gt;&lt;p style=&quot;margin:0px;margin-left:4px;&quot;&gt;+ rigth: Expression&lt;/p&gt;" style="verticalAlign=top;align=left;overflow=fill;fontSize=12;fontFamily=Helvetica;html=1;whiteSpace=wrap;" vertex="1" parent="1">
          <mxGeometry x="640" y="-1070" width="160" height="50" as="geometry" />
        </mxCell>
        <mxCell id="VL0LkrrhZiRL5HvyZSjI-22" style="edgeStyle=orthogonalEdgeStyle;rounded=0;orthogonalLoop=1;jettySize=auto;html=1;endArrow=none;endFill=0;startArrow=diamondThin;startFill=0;" edge="1" parent="1" source="0KtcvcgZO-7BNj8EX-Y_-10" target="0KtcvcgZO-7BNj8EX-Y_-1">
          <mxGeometry relative="1" as="geometry">
            <Array as="points">
              <mxPoint x="420" y="-930" />
              <mxPoint x="400" y="-930" />
            </Array>
          </mxGeometry>
        </mxCell>
        <mxCell id="0KtcvcgZO-7BNj8EX-Y_-10" value="&lt;p style=&quot;margin:0px;margin-top:4px;text-align:center;&quot;&gt;&lt;b&gt;FieldAccess&lt;/b&gt;&lt;/p&gt;&lt;hr size=&quot;1&quot;&gt;&lt;p style=&quot;margin:0px;margin-left:4px;&quot;&gt;+ field: Expression&lt;/p&gt;" style="verticalAlign=top;align=left;overflow=fill;fontSize=12;fontFamily=Helvetica;html=1;whiteSpace=wrap;" vertex="1" parent="1">
          <mxGeometry x="340" y="-1020" width="160" height="50" as="geometry" />
        </mxCell>
        <mxCell id="0KtcvcgZO-7BNj8EX-Y_-11" value="&lt;p style=&quot;margin:0px;margin-top:4px;text-align:center;&quot;&gt;&lt;b&gt;FloatLiteral&lt;/b&gt;&lt;/p&gt;&lt;hr size=&quot;1&quot;&gt;&lt;p style=&quot;margin:0px;margin-left:4px;&quot;&gt;+ value: double&lt;/p&gt;" style="verticalAlign=top;align=left;overflow=fill;fontSize=12;fontFamily=Helvetica;html=1;whiteSpace=wrap;" vertex="1" parent="1">
          <mxGeometry x="640" y="-1290" width="160" height="50" as="geometry" />
        </mxCell>
        <mxCell id="0KtcvcgZO-7BNj8EX-Y_-12" value="&lt;p style=&quot;margin:0px;margin-top:4px;text-align:center;&quot;&gt;&lt;b&gt;CharLiteral&lt;/b&gt;&lt;/p&gt;&lt;hr size=&quot;1&quot;&gt;&lt;p style=&quot;margin:0px;margin-left:4px;&quot;&gt;+ value: char&lt;/p&gt;" style="verticalAlign=top;align=left;overflow=fill;fontSize=12;fontFamily=Helvetica;html=1;whiteSpace=wrap;" vertex="1" parent="1">
          <mxGeometry x="640" y="-1350" width="160" height="50" as="geometry" />
        </mxCell>
        <mxCell id="VL0LkrrhZiRL5HvyZSjI-5" style="edgeStyle=orthogonalEdgeStyle;rounded=0;orthogonalLoop=1;jettySize=auto;html=1;endArrow=none;endFill=0;dashed=1;" edge="1" parent="1" source="0KtcvcgZO-7BNj8EX-Y_-13">
          <mxGeometry relative="1" as="geometry">
            <mxPoint x="550" y="-1375" as="targetPoint" />
          </mxGeometry>
        </mxCell>
        <mxCell id="pxX8koNSCoVORBukpUF8-1" style="edgeStyle=orthogonalEdgeStyle;rounded=0;orthogonalLoop=1;jettySize=auto;html=1;endArrow=none;endFill=0;startArrow=diamondThin;startFill=0;" edge="1" parent="1" source="0KtcvcgZO-7BNj8EX-Y_-13" target="0KtcvcgZO-7BNj8EX-Y_-1">
          <mxGeometry relative="1" as="geometry">
            <Array as="points">
              <mxPoint x="320" y="-1375" />
            </Array>
          </mxGeometry>
        </mxCell>
        <mxCell id="0KtcvcgZO-7BNj8EX-Y_-13" value="&lt;p style=&quot;margin:0px;margin-top:4px;text-align:center;&quot;&gt;&lt;b&gt;Cast&lt;/b&gt;&lt;/p&gt;&lt;hr size=&quot;1&quot;&gt;&lt;p style=&quot;margin:0px;margin-left:4px;&quot;&gt;&lt;span style=&quot;background-color: initial;&quot;&gt;+ expression: Expression&lt;/span&gt;&lt;/p&gt;&lt;p style=&quot;margin:0px;margin-left:4px;&quot;&gt;&lt;span style=&quot;background-color: initial;&quot;&gt;+ castType: Type&lt;/span&gt;&lt;/p&gt;" style="verticalAlign=top;align=left;overflow=fill;fontSize=12;fontFamily=Helvetica;html=1;whiteSpace=wrap;" vertex="1" parent="1">
          <mxGeometry x="340" y="-1410" width="160" height="70" as="geometry" />
        </mxCell>
        <mxCell id="VL0LkrrhZiRL5HvyZSjI-26" style="edgeStyle=orthogonalEdgeStyle;rounded=0;orthogonalLoop=1;jettySize=auto;html=1;startArrow=diamondThin;startFill=0;endArrow=none;endFill=0;" edge="1" parent="1" source="0KtcvcgZO-7BNj8EX-Y_-14" target="0KtcvcgZO-7BNj8EX-Y_-1">
          <mxGeometry relative="1" as="geometry">
            <Array as="points">
              <mxPoint x="820" y="-1115" />
              <mxPoint x="820" y="-930" />
              <mxPoint x="400" y="-930" />
            </Array>
          </mxGeometry>
        </mxCell>
        <mxCell id="0KtcvcgZO-7BNj8EX-Y_-14" value="&lt;p style=&quot;margin:0px;margin-top:4px;text-align:center;&quot;&gt;&lt;b&gt;ArrayAccess&lt;/b&gt;&lt;/p&gt;&lt;hr size=&quot;1&quot;&gt;&lt;p style=&quot;margin:0px;margin-left:4px;&quot;&gt;+ left: Expression&lt;br&gt;&lt;/p&gt;&lt;p style=&quot;margin:0px;margin-left:4px;&quot;&gt;+ id: String&lt;/p&gt;" style="verticalAlign=top;align=left;overflow=fill;fontSize=12;fontFamily=Helvetica;html=1;whiteSpace=wrap;" vertex="1" parent="1">
          <mxGeometry x="640" y="-1150" width="160" height="70" as="geometry" />
        </mxCell>
        <mxCell id="VL0LkrrhZiRL5HvyZSjI-2" style="edgeStyle=orthogonalEdgeStyle;rounded=0;orthogonalLoop=1;jettySize=auto;html=1;entryX=1;entryY=0.5;entryDx=0;entryDy=0;endArrow=block;endFill=0;dashed=1;" edge="1" parent="1" source="VL0LkrrhZiRL5HvyZSjI-1" target="0KtcvcgZO-7BNj8EX-Y_-1">
          <mxGeometry relative="1" as="geometry" />
        </mxCell>
        <mxCell id="VL0LkrrhZiRL5HvyZSjI-3" style="edgeStyle=orthogonalEdgeStyle;rounded=0;orthogonalLoop=1;jettySize=auto;html=1;endArrow=block;endFill=0;dashed=1;" edge="1" parent="1" source="VL0LkrrhZiRL5HvyZSjI-1" target="rsHb8JiWc4PLuXVfpDFB-1">
          <mxGeometry relative="1" as="geometry">
            <Array as="points">
              <mxPoint x="695" y="-770" />
              <mxPoint x="90" y="-770" />
            </Array>
          </mxGeometry>
        </mxCell>
        <mxCell id="VL0LkrrhZiRL5HvyZSjI-1" value="&lt;p style=&quot;margin: 4px 0px 0px; text-align: center;&quot;&gt;&lt;b&gt;FunctionInvocation&lt;/b&gt;&lt;/p&gt;&lt;hr&gt;&lt;p style=&quot;margin:0px;margin-left:8px;&quot;&gt;parameters: List&amp;lt;Expression&amp;gt;&lt;/p&gt;" style="verticalAlign=top;align=left;overflow=fill;fontSize=12;fontFamily=Helvetica;html=1;whiteSpace=wrap;" vertex="1" parent="1">
          <mxGeometry x="600" y="-888.12" width="190" height="56.25" as="geometry" />
        </mxCell>
        <mxCell id="VL0LkrrhZiRL5HvyZSjI-6" style="edgeStyle=orthogonalEdgeStyle;rounded=0;orthogonalLoop=1;jettySize=auto;html=1;endArrow=none;endFill=0;dashed=1;" edge="1" parent="1">
          <mxGeometry relative="1" as="geometry">
            <mxPoint x="550" y="-1305.17" as="targetPoint" />
            <mxPoint x="500" y="-1305.17" as="sourcePoint" />
          </mxGeometry>
        </mxCell>
        <mxCell id="VL0LkrrhZiRL5HvyZSjI-7" style="edgeStyle=orthogonalEdgeStyle;rounded=0;orthogonalLoop=1;jettySize=auto;html=1;endArrow=none;endFill=0;dashed=1;" edge="1" parent="1">
          <mxGeometry relative="1" as="geometry">
            <mxPoint x="550" y="-1250" as="targetPoint" />
            <mxPoint x="500" y="-1250" as="sourcePoint" />
          </mxGeometry>
        </mxCell>
        <mxCell id="VL0LkrrhZiRL5HvyZSjI-8" style="edgeStyle=orthogonalEdgeStyle;rounded=0;orthogonalLoop=1;jettySize=auto;html=1;endArrow=none;endFill=0;dashed=1;" edge="1" parent="1">
          <mxGeometry relative="1" as="geometry">
            <mxPoint x="550" y="-1170" as="targetPoint" />
            <mxPoint x="500" y="-1170" as="sourcePoint" />
          </mxGeometry>
        </mxCell>
        <mxCell id="VL0LkrrhZiRL5HvyZSjI-9" style="edgeStyle=orthogonalEdgeStyle;rounded=0;orthogonalLoop=1;jettySize=auto;html=1;endArrow=none;endFill=0;dashed=1;" edge="1" parent="1">
          <mxGeometry relative="1" as="geometry">
            <mxPoint x="550" y="-1090" as="targetPoint" />
            <mxPoint x="500" y="-1090" as="sourcePoint" />
          </mxGeometry>
        </mxCell>
        <mxCell id="VL0LkrrhZiRL5HvyZSjI-10" style="edgeStyle=orthogonalEdgeStyle;rounded=0;orthogonalLoop=1;jettySize=auto;html=1;endArrow=none;endFill=0;dashed=1;" edge="1" parent="1">
          <mxGeometry relative="1" as="geometry">
            <mxPoint x="550" y="-995.17" as="targetPoint" />
            <mxPoint x="500" y="-995.17" as="sourcePoint" />
          </mxGeometry>
        </mxCell>
        <mxCell id="VL0LkrrhZiRL5HvyZSjI-12" style="edgeStyle=orthogonalEdgeStyle;rounded=0;orthogonalLoop=1;jettySize=auto;html=1;endArrow=none;endFill=0;dashed=1;" edge="1" parent="1">
          <mxGeometry relative="1" as="geometry">
            <mxPoint x="550" y="-1045.17" as="targetPoint" />
            <mxPoint x="640" y="-1045.17" as="sourcePoint" />
          </mxGeometry>
        </mxCell>
        <mxCell id="VL0LkrrhZiRL5HvyZSjI-13" style="edgeStyle=orthogonalEdgeStyle;rounded=0;orthogonalLoop=1;jettySize=auto;html=1;endArrow=none;endFill=0;dashed=1;" edge="1" parent="1">
          <mxGeometry relative="1" as="geometry">
            <mxPoint x="550" y="-1110" as="targetPoint" />
            <mxPoint x="640" y="-1110" as="sourcePoint" />
          </mxGeometry>
        </mxCell>
        <mxCell id="VL0LkrrhZiRL5HvyZSjI-14" style="edgeStyle=orthogonalEdgeStyle;rounded=0;orthogonalLoop=1;jettySize=auto;html=1;endArrow=none;endFill=0;dashed=1;" edge="1" parent="1">
          <mxGeometry relative="1" as="geometry">
            <mxPoint x="550" y="-1195.17" as="targetPoint" />
            <mxPoint x="640" y="-1195.17" as="sourcePoint" />
          </mxGeometry>
        </mxCell>
        <mxCell id="VL0LkrrhZiRL5HvyZSjI-15" style="edgeStyle=orthogonalEdgeStyle;rounded=0;orthogonalLoop=1;jettySize=auto;html=1;endArrow=none;endFill=0;dashed=1;" edge="1" parent="1">
          <mxGeometry relative="1" as="geometry">
            <mxPoint x="550" y="-1265.17" as="targetPoint" />
            <mxPoint x="640" y="-1265.17" as="sourcePoint" />
          </mxGeometry>
        </mxCell>
        <mxCell id="VL0LkrrhZiRL5HvyZSjI-16" style="edgeStyle=orthogonalEdgeStyle;rounded=0;orthogonalLoop=1;jettySize=auto;html=1;endArrow=none;endFill=0;dashed=1;" edge="1" parent="1">
          <mxGeometry relative="1" as="geometry">
            <mxPoint x="550" y="-1340" as="targetPoint" />
            <mxPoint x="640" y="-1340" as="sourcePoint" />
          </mxGeometry>
        </mxCell>
        <mxCell id="VL0LkrrhZiRL5HvyZSjI-23" value="1" style="text;html=1;align=center;verticalAlign=middle;resizable=0;points=[];autosize=1;strokeColor=none;fillColor=none;" vertex="1" parent="1">
          <mxGeometry x="395" y="-918.12" width="30" height="30" as="geometry" />
        </mxCell>
        <mxCell id="pxX8koNSCoVORBukpUF8-2" value="1" style="text;html=1;align=center;verticalAlign=middle;resizable=0;points=[];autosize=1;strokeColor=none;fillColor=none;" vertex="1" parent="1">
          <mxGeometry x="310" y="-918.12" width="30" height="30" as="geometry" />
        </mxCell>
        <mxCell id="pxX8koNSCoVORBukpUF8-4" value="1" style="text;html=1;align=center;verticalAlign=middle;resizable=0;points=[];autosize=1;strokeColor=none;fillColor=none;" vertex="1" parent="1">
          <mxGeometry x="805" y="-1412" width="30" height="30" as="geometry" />
        </mxCell>
      </root>
    </mxGraphModel>
  </diagram>
</mxfile>
